<svg
xmlns="http://www.w3.org/2000/svg"
width="1200"
height="390"
viewBox="0 0 1200 390"
fill="none"
>

<rect
    width="1200"
    height="390"
    fill="#000000"
/>

<rect
    x="1"
    y="1"
    width="1198"
    height="388"
    stroke="#333333"
    stroke-width="2"
/>


<!-- HEADER -->

<text
    x="42"
    y="48"
    fill="#FFFFFF"
    font-family="monospace"
    font-size="20"
    font-weight="700"
    letter-spacing="2"
>
LEETCODE
</text>

<text
    x="1158"
    y="48"
    fill="#FFFFFF"
    font-family="monospace"
    font-size="18"
    text-anchor="end"
>
2026
</text>


<line
    x1="42"
    y1="70"
    x2="1158"
    y2="70"
    stroke="#222222"
/>


<!-- STATISTICS -->


<text
    x="70"
    y="118"
    fill="#FFFFFF"
    font-family="monospace"
    font-size="28"
    text-anchor="middle"
>
82
</text>

<text
    x="365"
    y="118"
    fill="#FFFFFF"
    font-family="monospace"
    font-size="28"
    text-anchor="middle"
>
49
</text>

<text
    x="660"
    y="118"
    fill="#FFFFFF"
    font-family="monospace"
    font-size="28"
    text-anchor="middle"
>
33
</text>

<text
    x="955"
    y="118"
    fill="#FFFFFF"
    font-family="monospace"
    font-size="28"
    text-anchor="middle"
>
0
</text>


<text
    x="70"
    y="143"
    fill="#888888"
    font-family="monospace"
    font-size="12"
    text-anchor="middle"
    letter-spacing="1"
>
SOLVED
</text>

<text
    x="365"
    y="143"
    fill="#888888"
    font-family="monospace"
    font-size="12"
    text-anchor="middle"
    letter-spacing="1"
>
EASY
</text>

<text
    x="660"
    y="143"
    fill="#888888"
    font-family="monospace"
    font-size="12"
    text-anchor="middle"
    letter-spacing="1"
>
MEDIUM
</text>

<text
    x="955"
    y="143"
    fill="#888888"
    font-family="monospace"
    font-size="12"
    text-anchor="middle"
    letter-spacing="1"
>
HARD
</text>


<line
    x1="42"
    y1="165"
    x2="1158"
    y2="165"
    stroke="#222222"
/>


<!-- SUBMISSION ACTIVITY -->

<text
    x="42"
    y="195"
    fill="#FFFFFF"
    font-family="monospace"
    font-size="12"
    letter-spacing="1"
>
SUBMISSION ACTIVITY
</text>


<g transform="translate(42 215)">

<rect
    x="0"
    y="0"
    width="14"
    height="14"
    fill="#151515"
/>

<rect
    x="0"
    y="19"
    width="14"
    height="14"
    fill="#151515"
/>

<rect
    x="0"
    y="38"
    width="14"
    height="14"
    fill="#151515"
/>

<rect
    x="0"
    y="57"
    width="14"
    height="14"
    fill="#151515"
/>

<rect
    x="0"
    y="76"
    width="14"
    height="14"
    fill="#151515"
/>

<rect
    x="0"
    y="95"
    width="14"
    height="14"
    fill="#151515"
/>

<rect
    x="0"
    y="114"
    width="14"
    height="14"
    fill="#151515"
/>

<rect
    x="19"
    y="0"
    width="14"
    height="14"
    fill="#151515"
/>

<rect
    x="19"
    y="19"
    width="14"
    height="14"
    fill="#151515"
/>

<rect
    x="19"
    y="38"
    width="14"
    height="14"
    fill="#151515"
/>

<rect
    x="19"
    y="57"
    width="14"
    height="14"
    fill="#151515"
/>

<rect
    x="19"
    y="76"
    width="14"
    height="14"
    fill="#151515"
/>

<rect
    x="19"
    y="95"
    width="14"
    height="14"
    fill="#151515"
/>

<rect
    x="19"
    y="114"
    width="14"
    height="14"
    fill="#151515"
/>

<rect
    x="38"
    y="0"
    width="14"
    height="14"
    fill="#151515"
/>

<rect
    x="38"
    y="19"
    width="14"
    height="14"
    fill="#151515"
/>

<rect
    x="38"
    y="38"
    width="14"
    height="14"
    fill="#151515"
/>

<rect
    x="38"
    y="57"
    width="14"
    height="14"
    fill="#151515"
/>

<rect
    x="38"
    y="76"
    width="14"
    height="14"
    fill="#151515"
/>

<rect
    x="38"
    y="95"
    width="14"
    height="14"
    fill="#151515"
/>

<rect
    x="38"
    y="114"
    width="14"
    height="14"
    fill="#151515"
/>

<rect
    x="57"
    y="0"
    width="14"
    height="14"
    fill="#151515"
/>

<rect
    x="57"
    y="19"
    width="14"
    height="14"
    fill="#151515"
/>

<rect
    x="57"
    y="38"
    width="14"
    height="14"
    fill="#151515"
/>

<rect
    x="57"
    y="57"
    width="14"
    height="14"
    fill="#151515"
/>

<rect
    x="57"
    y="76"
    width="14"
    height="14"
    fill="#151515"
/>

<rect
    x="57"
    y="95"
    width="14"
    height="14"
    fill="#151515"
/>

<rect
    x="57"
    y="114"
    width="14"
    height="14"
    fill="#151515"
/>

<rect
    x="76"
    y="0"
    width="14"
    height="14"
    fill="#151515"
/>

<rect
    x="76"
    y="19"
    width="14"
    height="14"
    fill="#151515"
/>

<rect
    x="76"
    y="38"
    width="14"
    height="14"
    fill="#151515"
/>

<rect
    x="76"
    y="57"
    width="14"
    height="14"
    fill="#151515"
/>

<rect
    x="76"
    y="76"
    width="14"
    height="14"
    fill="#151515"
/>

<rect
    x="76"
    y="95"
    width="14"
    height="14"
    fill="#151515"
/>

<rect
    x="76"
    y="114"
    width="14"
    height="14"
    fill="#151515"
/>

<rect
    x="95"
    y="0"
    width="14"
    height="14"
    fill="#151515"
/>

<rect
    x="95"
    y="19"
    width="14"
    height="14"
    fill="#151515"
/>

<rect
    x="95"
    y="38"
    width="14"
    height="14"
    fill="#151515"
/>

<rect
    x="95"
    y="57"
    width="14"
    height="14"
    fill="#151515"
/>

<rect
    x="95"
    y="76"
    width="14"
    height="14"
    fill="#151515"
/>

<rect
    x="95"
    y="95"
    width="14"
    height="14"
    fill="#151515"
/>

<rect
    x="95"
    y="114"
    width="14"
    height="14"
    fill="#151515"
/>

<rect
    x="114"
    y="0"
    width="14"
    height="14"
    fill="#151515"
/>

<rect
    x="114"
    y="19"
    width="14"
    height="14"
    fill="#151515"
/>

<rect
    x="114"
    y="38"
    width="14"
    height="14"
    fill="#151515"
/>

<rect
    x="114"
    y="57"
    width="14"
    height="14"
    fill="#151515"
/>

<rect
    x="114"
    y="76"
    width="14"
    height="14"
    fill="#151515"
/>

<rect
    x="114"
    y="95"
    width="14"
    height="14"
    fill="#151515"
/>

<rect
    x="114"
    y="114"
    width="14"
    height="14"
    fill="#151515"
/>

<rect
    x="133"
    y="0"
    width="14"
    height="14"
    fill="#151515"
/>

<rect
    x="133"
    y="19"
    width="14"
    height="14"
    fill="#151515"
/>

<rect
    x="133"
    y="38"
    width="14"
    height="14"
    fill="#151515"
/>

<rect
    x="133"
    y="57"
    width="14"
    height="14"
    fill="#151515"
/>

<rect
    x="133"
    y="76"
    width="14"
    height="14"
    fill="#151515"
/>

<rect
    x="133"
    y="95"
    width="14"
    height="14"
    fill="#151515"
/>

<rect
    x="133"
    y="114"
    width="14"
    height="14"
    fill="#151515"
/>

<rect
    x="152"
    y="0"
    width="14"
    height="14"
    fill="#151515"
/>

<rect
    x="152"
    y="19"
    width="14"
    height="14"
    fill="#151515"
/>

<rect
    x="152"
    y="38"
    width="14"
    height="14"
    fill="#151515"
/>

<rect
    x="152"
    y="57"
    width="14"
    height="14"
    fill="#151515"
/>

<rect
    x="152"
    y="76"
    width="14"
    height="14"
    fill="#151515"
/>

<rect
    x="152"
    y="95"
    width="14"
    height="14"
    fill="#151515"
/>

<rect
    x="152"
    y="114"
    width="14"
    height="14"
    fill="#151515"
/>

<rect
    x="171"
    y="0"
    width="14"
    height="14"
    fill="#151515"
/>

<rect
    x="171"
    y="19"
    width="14"
    height="14"
    fill="#151515"
/>

<rect
    x="171"
    y="38"
    width="14"
    height="14"
    fill="#151515"
/>

<rect
    x="171"
    y="57"
    width="14"
    height="14"
    fill="#151515"
/>

<rect
    x="171"
    y="76"
    width="14"
    height="14"
    fill="#151515"
/>

<rect
    x="171"
    y="95"
    width="14"
    height="14"
    fill="#151515"
/>

<rect
    x="171"
    y="114"
    width="14"
    height="14"
    fill="#151515"
/>

<rect
    x="190"
    y="0"
    width="14"
    height="14"
    fill="#151515"
/>

<rect
    x="190"
    y="19"
    width="14"
    height="14"
    fill="#151515"
/>

<rect
    x="190"
    y="38"
    width="14"
    height="14"
    fill="#151515"
/>

<rect
    x="190"
    y="57"
    width="14"
    height="14"
    fill="#151515"
/>

<rect
    x="190"
    y="76"
    width="14"
    height="14"
    fill="#151515"
/>

<rect
    x="190"
    y="95"
    width="14"
    height="14"
    fill="#151515"
/>

<rect
    x="190"
    y="114"
    width="14"
    height="14"
    fill="#151515"
/>

<rect
    x="209"
    y="0"
    width="14"
    height="14"
    fill="#151515"
/>

<rect
    x="209"
    y="19"
    width="14"
    height="14"
    fill="#151515"
/>

<rect
    x="209"
    y="38"
    width="14"
    height="14"
    fill="#151515"
/>

<rect
    x="209"
    y="57"
    width="14"
    height="14"
    fill="#151515"
/>

<rect
    x="209"
    y="76"
    width="14"
    height="14"
    fill="#151515"
/>

<rect
    x="209"
    y="95"
    width="14"
    height="14"
    fill="#151515"
/>

<rect
    x="209"
    y="114"
    width="14"
    height="14"
    fill="#151515"
/>

<rect
    x="228"
    y="0"
    width="14"
    height="14"
    fill="#151515"
/>

<rect
    x="228"
    y="19"
    width="14"
    height="14"
    fill="#151515"
/>

<rect
    x="228"
    y="38"
    width="14"
    height="14"
    fill="#151515"
/>

<rect
    x="228"
    y="57"
    width="14"
    height="14"
    fill="#151515"
/>

<rect
    x="228"
    y="76"
    width="14"
    height="14"
    fill="#151515"
/>

<rect
    x="228"
    y="95"
    width="14"
    height="14"
    fill="#151515"
/>

<rect
    x="228"
    y="114"
    width="14"
    height="14"
    fill="#151515"
/>

<rect
    x="247"
    y="0"
    width="14"
    height="14"
    fill="#151515"
/>

<rect
    x="247"
    y="19"
    width="14"
    height="14"
    fill="#151515"
/>

<rect
    x="247"
    y="38"
    width="14"
    height="14"
    fill="#151515"
/>

<rect
    x="247"
    y="57"
    width="14"
    height="14"
    fill="#151515"
/>

<rect
    x="247"
    y="76"
    width="14"
    height="14"
    fill="#151515"
/>

<rect
    x="247"
    y="95"
    width="14"
    height="14"
    fill="#151515"
/>

<rect
    x="247"
    y="114"
    width="14"
    height="14"
    fill="#151515"
/>

<rect
    x="266"
    y="0"
    width="14"
    height="14"
    fill="#151515"
/>

<rect
    x="266"
    y="19"
    width="14"
    height="14"
    fill="#151515"
/>

<rect
    x="266"
    y="38"
    width="14"
    height="14"
    fill="#151515"
/>

<rect
    x="266"
    y="57"
    width="14"
    height="14"
    fill="#151515"
/>

<rect
    x="266"
    y="76"
    width="14"
    height="14"
    fill="#151515"
/>

<rect
    x="266"
    y="95"
    width="14"
    height="14"
    fill="#151515"
/>

<rect
    x="266"
    y="114"
    width="14"
    height="14"
    fill="#151515"
/>

<rect
    x="285"
    y="0"
    width="14"
    height="14"
    fill="#151515"
/>

<rect
    x="285"
    y="19"
    width="14"
    height="14"
    fill="#151515"
/>

<rect
    x="285"
    y="38"
    width="14"
    height="14"
    fill="#151515"
/>

<rect
    x="285"
    y="57"
    width="14"
    height="14"
    fill="#151515"
/>

<rect
    x="285"
    y="76"
    width="14"
    height="14"
    fill="#151515"
/>

<rect
    x="285"
    y="95"
    width="14"
    height="14"
    fill="#151515"
/>

<rect
    x="285"
    y="114"
    width="14"
    height="14"
    fill="#151515"
/>

<rect
    x="304"
    y="0"
    width="14"
    height="14"
    fill="#151515"
/>

<rect
    x="304"
    y="19"
    width="14"
    height="14"
    fill="#151515"
/>

<rect
    x="304"
    y="38"
    width="14"
    height="14"
    fill="#151515"
/>

<rect
    x="304"
    y="57"
    width="14"
    height="14"
    fill="#151515"
/>

<rect
    x="304"
    y="76"
    width="14"
    height="14"
    fill="#151515"
/>

<rect
    x="304"
    y="95"
    width="14"
    height="14"
    fill="#151515"
/>

<rect
    x="304"
    y="114"
    width="14"
    height="14"
    fill="#151515"
/>

<rect
    x="323"
    y="0"
    width="14"
    height="14"
    fill="#151515"
/>

<rect
    x="323"
    y="19"
    width="14"
    height="14"
    fill="#151515"
/>

<rect
    x="323"
    y="38"
    width="14"
    height="14"
    fill="#151515"
/>

<rect
    x="323"
    y="57"
    width="14"
    height="14"
    fill="#151515"
/>

<rect
    x="323"
    y="76"
    width="14"
    height="14"
    fill="#151515"
/>

<rect
    x="323"
    y="95"
    width="14"
    height="14"
    fill="#151515"
/>

<rect
    x="323"
    y="114"
    width="14"
    height="14"
    fill="#151515"
/>

<rect
    x="342"
    y="0"
    width="14"
    height="14"
    fill="#151515"
/>

<rect
    x="342"
    y="19"
    width="14"
    height="14"
    fill="#151515"
/>

<rect
    x="342"
    y="38"
    width="14"
    height="14"
    fill="#151515"
/>

<rect
    x="342"
    y="57"
    width="14"
    height="14"
    fill="#151515"
/>

<rect
    x="342"
    y="76"
    width="14"
    height="14"
    fill="#151515"
/>

<rect
    x="342"
    y="95"
    width="14"
    height="14"
    fill="#151515"
/>

<rect
    x="342"
    y="114"
    width="14"
    height="14"
    fill="#151515"
/>

<rect
    x="361"
    y="0"
    width="14"
    height="14"
    fill="#151515"
/>

<rect
    x="361"
    y="19"
    width="14"
    height="14"
    fill="#151515"
/>

<rect
    x="361"
    y="38"
    width="14"
    height="14"
    fill="#151515"
/>

<rect
    x="361"
    y="57"
    width="14"
    height="14"
    fill="#151515"
/>

<rect
    x="361"
    y="76"
    width="14"
    height="14"
    fill="#151515"
/>

<rect
    x="361"
    y="95"
    width="14"
    height="14"
    fill="#151515"
/>

<rect
    x="361"
    y="114"
    width="14"
    height="14"
    fill="#151515"
/>

<rect
    x="380"
    y="0"
    width="14"
    height="14"
    fill="#151515"
/>

<rect
    x="380"
    y="19"
    width="14"
    height="14"
    fill="#151515"
/>

<rect
    x="380"
    y="38"
    width="14"
    height="14"
    fill="#151515"
/>

<rect
    x="380"
    y="57"
    width="14"
    height="14"
    fill="#151515"
/>

<rect
    x="380"
    y="76"
    width="14"
    height="14"
    fill="#151515"
/>

<rect
    x="380"
    y="95"
    width="14"
    height="14"
    fill="#151515"
/>

<rect
    x="380"
    y="114"
    width="14"
    height="14"
    fill="#151515"
/>

<rect
    x="399"
    y="0"
    width="14"
    height="14"
    fill="#151515"
/>

<rect
    x="399"
    y="19"
    width="14"
    height="14"
    fill="#151515"
/>

<rect
    x="399"
    y="38"
    width="14"
    height="14"
    fill="#151515"
/>

<rect
    x="399"
    y="57"
    width="14"
    height="14"
    fill="#151515"
/>

<rect
    x="399"
    y="76"
    width="14"
    height="14"
    fill="#151515"
/>

<rect
    x="399"
    y="95"
    width="14"
    height="14"
    fill="#151515"
/>

<rect
    x="399"
    y="114"
    width="14"
    height="14"
    fill="#151515"
/>

<rect
    x="418"
    y="0"
    width="14"
    height="14"
    fill="#151515"
/>

<rect
    x="418"
    y="19"
    width="14"
    height="14"
    fill="#151515"
/>

<rect
    x="418"
    y="38"
    width="14"
    height="14"
    fill="#151515"
/>

<rect
    x="418"
    y="57"
    width="14"
    height="14"
    fill="#151515"
/>

<rect
    x="418"
    y="76"
    width="14"
    height="14"
    fill="#151515"
/>

<rect
    x="418"
    y="95"
    width="14"
    height="14"
    fill="#151515"
/>

<rect
    x="418"
    y="114"
    width="14"
    height="14"
    fill="#151515"
/>

<rect
    x="437"
    y="0"
    width="14"
    height="14"
    fill="#151515"
/>

<rect
    x="437"
    y="19"
    width="14"
    height="14"
    fill="#151515"
/>

<rect
    x="437"
    y="38"
    width="14"
    height="14"
    fill="#151515"
/>

<rect
    x="437"
    y="57"
    width="14"
    height="14"
    fill="#151515"
/>

<rect
    x="437"
    y="76"
    width="14"
    height="14"
    fill="#151515"
/>

<rect
    x="437"
    y="95"
    width="14"
    height="14"
    fill="#151515"
/>

<rect
    x="437"
    y="114"
    width="14"
    height="14"
    fill="#151515"
/>

<rect
    x="456"
    y="0"
    width="14"
    height="14"
    fill="#151515"
/>

<rect
    x="456"
    y="19"
    width="14"
    height="14"
    fill="#151515"
/>

<rect
    x="456"
    y="38"
    width="14"
    height="14"
    fill="#151515"
/>

<rect
    x="456"
    y="57"
    width="14"
    height="14"
    fill="#151515"
/>

<rect
    x="456"
    y="76"
    width="14"
    height="14"
    fill="#151515"
/>

<rect
    x="456"
    y="95"
    width="14"
    height="14"
    fill="#151515"
/>

<rect
    x="456"
    y="114"
    width="14"
    height="14"
    fill="#151515"
/>

<rect
    x="475"
    y="0"
    width="14"
    height="14"
    fill="#151515"
/>

<rect
    x="475"
    y="19"
    width="14"
    height="14"
    fill="#151515"
/>

<rect
    x="475"
    y="38"
    width="14"
    height="14"
    fill="#151515"
/>

<rect
    x="475"
    y="57"
    width="14"
    height="14"
    fill="#151515"
/>

<rect
    x="475"
    y="76"
    width="14"
    height="14"
    fill="#151515"
/>

<rect
    x="475"
    y="95"
    width="14"
    height="14"
    fill="#151515"
/>

<rect
    x="475"
    y="114"
    width="14"
    height="14"
    fill="#151515"
/>

<rect
    x="494"
    y="0"
    width="14"
    height="14"
    fill="#151515"
/>

<rect
    x="494"
    y="19"
    width="14"
    height="14"
    fill="#151515"
/>

<rect
    x="494"
    y="38"
    width="14"
    height="14"
    fill="#151515"
/>

<rect
    x="494"
    y="57"
    width="14"
    height="14"
    fill="#151515"
/>

<rect
    x="494"
    y="76"
    width="14"
    height="14"
    fill="#151515"
/>

<rect
    x="494"
    y="95"
    width="14"
    height="14"
    fill="#151515"
/>

<rect
    x="494"
    y="114"
    width="14"
    height="14"
    fill="#151515"
/>

<rect
    x="513"
    y="0"
    width="14"
    height="14"
    fill="#151515"
/>

<rect
    x="513"
    y="19"
    width="14"
    height="14"
    fill="#151515"
/>

<rect
    x="513"
    y="38"
    width="14"
    height="14"
    fill="#151515"
/>

<rect
    x="513"
    y="57"
    width="14"
    height="14"
    fill="#151515"
/>

<rect
    x="513"
    y="76"
    width="14"
    height="14"
    fill="#151515"
/>

<rect
    x="513"
    y="95"
    width="14"
    height="14"
    fill="#151515"
/>

<rect
    x="513"
    y="114"
    width="14"
    height="14"
    fill="#151515"
/>

<rect
    x="532"
    y="0"
    width="14"
    height="14"
    fill="#151515"
/>

<rect
    x="532"
    y="19"
    width="14"
    height="14"
    fill="#151515"
/>

<rect
    x="532"
    y="38"
    width="14"
    height="14"
    fill="#151515"
/>

<rect
    x="532"
    y="57"
    width="14"
    height="14"
    fill="#151515"
/>

<rect
    x="532"
    y="76"
    width="14"
    height="14"
    fill="#151515"
/>

<rect
    x="532"
    y="95"
    width="14"
    height="14"
    fill="#151515"
/>

<rect
    x="532"
    y="114"
    width="14"
    height="14"
    fill="#151515"
/>

<rect
    x="551"
    y="0"
    width="14"
    height="14"
    fill="#151515"
/>

<rect
    x="551"
    y="19"
    width="14"
    height="14"
    fill="#151515"
/>

<rect
    x="551"
    y="38"
    width="14"
    height="14"
    fill="#151515"
/>

<rect
    x="551"
    y="57"
    width="14"
    height="14"
    fill="#151515"
/>

<rect
    x="551"
    y="76"
    width="14"
    height="14"
    fill="#151515"
/>

<rect
    x="551"
    y="95"
    width="14"
    height="14"
    fill="#151515"
/>

<rect
    x="551"
    y="114"
    width="14"
    height="14"
    fill="#151515"
/>

<rect
    x="570"
    y="0"
    width="14"
    height="14"
    fill="#151515"
/>

<rect
    x="570"
    y="19"
    width="14"
    height="14"
    fill="#151515"
/>

<rect
    x="570"
    y="38"
    width="14"
    height="14"
    fill="#151515"
/>

<rect
    x="570"
    y="57"
    width="14"
    height="14"
    fill="#151515"
/>

<rect
    x="570"
    y="76"
    width="14"
    height="14"
    fill="#151515"
/>

<rect
    x="570"
    y="95"
    width="14"
    height="14"
    fill="#151515"
/>

<rect
    x="570"
    y="114"
    width="14"
    height="14"
    fill="#151515"
/>

<rect
    x="589"
    y="0"
    width="14"
    height="14"
    fill="#151515"
/>

<rect
    x="589"
    y="19"
    width="14"
    height="14"
    fill="#151515"
/>

<rect
    x="589"
    y="38"
    width="14"
    height="14"
    fill="#151515"
/>

<rect
    x="589"
    y="57"
    width="14"
    height="14"
    fill="#151515"
/>

<rect
    x="589"
    y="76"
    width="14"
    height="14"
    fill="#151515"
/>

<rect
    x="589"
    y="95"
    width="14"
    height="14"
    fill="#151515"
/>

<rect
    x="589"
    y="114"
    width="14"
    height="14"
    fill="#151515"
/>

<rect
    x="608"
    y="0"
    width="14"
    height="14"
    fill="#151515"
/>

<rect
    x="608"
    y="19"
    width="14"
    height="14"
    fill="#151515"
/>

<rect
    x="608"
    y="38"
    width="14"
    height="14"
    fill="#151515"
/>

<rect
    x="608"
    y="57"
    width="14"
    height="14"
    fill="#151515"
/>

<rect
    x="608"
    y="76"
    width="14"
    height="14"
    fill="#151515"
/>

<rect
    x="608"
    y="95"
    width="14"
    height="14"
    fill="#151515"
/>

<rect
    x="608"
    y="114"
    width="14"
    height="14"
    fill="#151515"
/>

<rect
    x="627"
    y="0"
    width="14"
    height="14"
    fill="#151515"
/>

<rect
    x="627"
    y="19"
    width="14"
    height="14"
    fill="#151515"
/>

<rect
    x="627"
    y="38"
    width="14"
    height="14"
    fill="#151515"
/>

<rect
    x="627"
    y="57"
    width="14"
    height="14"
    fill="#151515"
/>

<rect
    x="627"
    y="76"
    width="14"
    height="14"
    fill="#151515"
/>

<rect
    x="627"
    y="95"
    width="14"
    height="14"
    fill="#151515"
/>

<rect
    x="627"
    y="114"
    width="14"
    height="14"
    fill="#151515"
/>

<rect
    x="646"
    y="0"
    width="14"
    height="14"
    fill="#151515"
/>

<rect
    x="646"
    y="19"
    width="14"
    height="14"
    fill="#151515"
/>

<rect
    x="646"
    y="38"
    width="14"
    height="14"
    fill="#151515"
/>

<rect
    x="646"
    y="57"
    width="14"
    height="14"
    fill="#151515"
/>

<rect
    x="646"
    y="76"
    width="14"
    height="14"
    fill="#151515"
/>

<rect
    x="646"
    y="95"
    width="14"
    height="14"
    fill="#151515"
/>

<rect
    x="646"
    y="114"
    width="14"
    height="14"
    fill="#151515"
/>

<rect
    x="665"
    y="0"
    width="14"
    height="14"
    fill="#151515"
/>

<rect
    x="665"
    y="19"
    width="14"
    height="14"
    fill="#151515"
/>

<rect
    x="665"
    y="38"
    width="14"
    height="14"
    fill="#151515"
/>

<rect
    x="665"
    y="57"
    width="14"
    height="14"
    fill="#151515"
/>

<rect
    x="665"
    y="76"
    width="14"
    height="14"
    fill="#151515"
/>

<rect
    x="665"
    y="95"
    width="14"
    height="14"
    fill="#151515"
/>

<rect
    x="665"
    y="114"
    width="14"
    height="14"
    fill="#151515"
/>

<rect
    x="684"
    y="0"
    width="14"
    height="14"
    fill="#151515"
/>

<rect
    x="684"
    y="19"
    width="14"
    height="14"
    fill="#151515"
/>

<rect
    x="684"
    y="38"
    width="14"
    height="14"
    fill="#151515"
/>

<rect
    x="684"
    y="57"
    width="14"
    height="14"
    fill="#151515"
/>

<rect
    x="684"
    y="76"
    width="14"
    height="14"
    fill="#151515"
/>

<rect
    x="684"
    y="95"
    width="14"
    height="14"
    fill="#151515"
/>

<rect
    x="684"
    y="114"
    width="14"
    height="14"
    fill="#151515"
/>

<rect
    x="703"
    y="0"
    width="14"
    height="14"
    fill="#3A3A3A"
/>

<rect
    x="703"
    y="19"
    width="14"
    height="14"
    fill="#151515"
/>

<rect
    x="703"
    y="38"
    width="14"
    height="14"
    fill="#3A3A3A"
/>

<rect
    x="703"
    y="57"
    width="14"
    height="14"
    fill="#3A3A3A"
/>

<rect
    x="703"
    y="76"
    width="14"
    height="14"
    fill="#777777"
/>

<rect
    x="703"
    y="95"
    width="14"
    height="14"
    fill="#3A3A3A"
/>

<rect
    x="703"
    y="114"
    width="14"
    height="14"
    fill="#3A3A3A"
/>

<rect
    x="722"
    y="0"
    width="14"
    height="14"
    fill="#151515"
/>

<rect
    x="722"
    y="19"
    width="14"
    height="14"
    fill="#151515"
/>

<rect
    x="722"
    y="38"
    width="14"
    height="14"
    fill="#151515"
/>

<rect
    x="722"
    y="57"
    width="14"
    height="14"
    fill="#151515"
/>

<rect
    x="722"
    y="76"
    width="14"
    height="14"
    fill="#151515"
/>

<rect
    x="722"
    y="95"
    width="14"
    height="14"
    fill="#151515"
/>

<rect
    x="722"
    y="114"
    width="14"
    height="14"
    fill="#151515"
/>

<rect
    x="741"
    y="0"
    width="14"
    height="14"
    fill="#151515"
/>

<rect
    x="741"
    y="19"
    width="14"
    height="14"
    fill="#3A3A3A"
/>

<rect
    x="741"
    y="38"
    width="14"
    height="14"
    fill="#151515"
/>

<rect
    x="741"
    y="57"
    width="14"
    height="14"
    fill="#151515"
/>

<rect
    x="741"
    y="76"
    width="14"
    height="14"
    fill="#151515"
/>

<rect
    x="741"
    y="95"
    width="14"
    height="14"
    fill="#151515"
/>

<rect
    x="741"
    y="114"
    width="14"
    height="14"
    fill="#151515"
/>

<rect
    x="760"
    y="0"
    width="14"
    height="14"
    fill="#151515"
/>

<rect
    x="760"
    y="19"
    width="14"
    height="14"
    fill="#3A3A3A"
/>

<rect
    x="760"
    y="38"
    width="14"
    height="14"
    fill="#151515"
/>

<rect
    x="760"
    y="57"
    width="14"
    height="14"
    fill="#151515"
/>

<rect
    x="760"
    y="76"
    width="14"
    height="14"
    fill="#151515"
/>

<rect
    x="760"
    y="95"
    width="14"
    height="14"
    fill="#3A3A3A"
/>

<rect
    x="760"
    y="114"
    width="14"
    height="14"
    fill="#777777"
/>

<rect
    x="779"
    y="0"
    width="14"
    height="14"
    fill="#3A3A3A"
/>

<rect
    x="779"
    y="19"
    width="14"
    height="14"
    fill="#151515"
/>

<rect
    x="779"
    y="38"
    width="14"
    height="14"
    fill="#3A3A3A"
/>

<rect
    x="779"
    y="57"
    width="14"
    height="14"
    fill="#151515"
/>

<rect
    x="779"
    y="76"
    width="14"
    height="14"
    fill="#151515"
/>

<rect
    x="779"
    y="95"
    width="14"
    height="14"
    fill="#3A3A3A"
/>

<rect
    x="779"
    y="114"
    width="14"
    height="14"
    fill="#151515"
/>

<rect
    x="798"
    y="0"
    width="14"
    height="14"
    fill="#3A3A3A"
/>

<rect
    x="798"
    y="19"
    width="14"
    height="14"
    fill="#FFFFFF"
/>

<rect
    x="798"
    y="38"
    width="14"
    height="14"
    fill="#151515"
/>

<rect
    x="798"
    y="57"
    width="14"
    height="14"
    fill="#151515"
/>

<rect
    x="798"
    y="76"
    width="14"
    height="14"
    fill="#151515"
/>

<rect
    x="798"
    y="95"
    width="14"
    height="14"
    fill="#777777"
/>

<rect
    x="798"
    y="114"
    width="14"
    height="14"
    fill="#151515"
/>

<rect
    x="817"
    y="0"
    width="14"
    height="14"
    fill="#151515"
/>

<rect
    x="817"
    y="19"
    width="14"
    height="14"
    fill="#3A3A3A"
/>

<rect
    x="817"
    y="38"
    width="14"
    height="14"
    fill="#151515"
/>

<rect
    x="817"
    y="57"
    width="14"
    height="14"
    fill="#151515"
/>

<rect
    x="817"
    y="76"
    width="14"
    height="14"
    fill="#151515"
/>

<rect
    x="817"
    y="95"
    width="14"
    height="14"
    fill="#3A3A3A"
/>

<rect
    x="817"
    y="114"
    width="14"
    height="14"
    fill="#151515"
/>

<rect
    x="836"
    y="0"
    width="14"
    height="14"
    fill="#151515"
/>

<rect
    x="836"
    y="19"
    width="14"
    height="14"
    fill="#3A3A3A"
/>

<rect
    x="836"
    y="38"
    width="14"
    height="14"
    fill="#3A3A3A"
/>

<rect
    x="836"
    y="57"
    width="14"
    height="14"
    fill="#151515"
/>

<rect
    x="836"
    y="76"
    width="14"
    height="14"
    fill="#151515"
/>

<rect
    x="836"
    y="95"
    width="14"
    height="14"
    fill="#151515"
/>

<rect
    x="836"
    y="114"
    width="14"
    height="14"
    fill="#151515"
/>

<rect
    x="855"
    y="0"
    width="14"
    height="14"
    fill="#151515"
/>

<rect
    x="855"
    y="19"
    width="14"
    height="14"
    fill="#3A3A3A"
/>

<rect
    x="855"
    y="38"
    width="14"
    height="14"
    fill="#151515"
/>

<rect
    x="855"
    y="57"
    width="14"
    height="14"
    fill="#777777"
/>

<rect
    x="855"
    y="76"
    width="14"
    height="14"
    fill="#151515"
/>

<rect
    x="855"
    y="95"
    width="14"
    height="14"
    fill="#151515"
/>

<rect
    x="855"
    y="114"
    width="14"
    height="14"
    fill="#151515"
/>

<rect
    x="874"
    y="0"
    width="14"
    height="14"
    fill="#151515"
/>

<rect
    x="874"
    y="19"
    width="14"
    height="14"
    fill="#151515"
/>

<rect
    x="874"
    y="38"
    width="14"
    height="14"
    fill="#151515"
/>

<rect
    x="874"
    y="57"
    width="14"
    height="14"
    fill="#151515"
/>

<rect
    x="874"
    y="76"
    width="14"
    height="14"
    fill="#3A3A3A"
/>

<rect
    x="874"
    y="95"
    width="14"
    height="14"
    fill="#151515"
/>

<rect
    x="874"
    y="114"
    width="14"
    height="14"
    fill="#151515"
/>

<rect
    x="893"
    y="0"
    width="14"
    height="14"
    fill="#151515"
/>

<rect
    x="893"
    y="19"
    width="14"
    height="14"
    fill="#151515"
/>

<rect
    x="893"
    y="38"
    width="14"
    height="14"
    fill="#151515"
/>

<rect
    x="893"
    y="57"
    width="14"
    height="14"
    fill="#151515"
/>

<rect
    x="893"
    y="76"
    width="14"
    height="14"
    fill="#151515"
/>

<rect
    x="893"
    y="95"
    width="14"
    height="14"
    fill="#151515"
/>

<rect
    x="893"
    y="114"
    width="14"
    height="14"
    fill="#151515"
/>

<rect
    x="912"
    y="0"
    width="14"
    height="14"
    fill="#151515"
/>

<rect
    x="912"
    y="19"
    width="14"
    height="14"
    fill="#151515"
/>

<rect
    x="912"
    y="38"
    width="14"
    height="14"
    fill="#151515"
/>

<rect
    x="912"
    y="57"
    width="14"
    height="14"
    fill="#3A3A3A"
/>

<rect
    x="912"
    y="76"
    width="14"
    height="14"
    fill="#FFFFFF"
/>

<rect
    x="912"
    y="95"
    width="14"
    height="14"
    fill="#777777"
/>

<rect
    x="912"
    y="114"
    width="14"
    height="14"
    fill="#151515"
/>

<rect
    x="931"
    y="0"
    width="14"
    height="14"
    fill="#151515"
/>

<rect
    x="931"
    y="19"
    width="14"
    height="14"
    fill="#151515"
/>

<rect
    x="931"
    y="38"
    width="14"
    height="14"
    fill="#151515"
/>

<rect
    x="931"
    y="57"
    width="14"
    height="14"
    fill="#FFFFFF"
/>

<rect
    x="931"
    y="76"
    width="14"
    height="14"
    fill="#151515"
/>

<rect
    x="931"
    y="95"
    width="14"
    height="14"
    fill="#FFFFFF"
/>

<rect
    x="931"
    y="114"
    width="14"
    height="14"
    fill="#FFFFFF"
/>

<rect
    x="950"
    y="0"
    width="14"
    height="14"
    fill="#FFFFFF"
/>

<rect
    x="950"
    y="19"
    width="14"
    height="14"
    fill="#777777"
/>

<rect
    x="950"
    y="38"
    width="14"
    height="14"
    fill="#3A3A3A"
/>

<rect
    x="950"
    y="57"
    width="14"
    height="14"
    fill="#3A3A3A"
/>

<rect
    x="950"
    y="76"
    width="14"
    height="14"
    fill="#777777"
/>

<rect
    x="950"
    y="95"
    width="14"
    height="14"
    fill="#3A3A3A"
/>

<rect
    x="950"
    y="114"
    width="14"
    height="14"
    fill="#3A3A3A"
/>

<rect
    x="969"
    y="0"
    width="14"
    height="14"
    fill="#777777"
/>

<rect
    x="969"
    y="19"
    width="14"
    height="14"
    fill="#777777"
/>

<rect
    x="969"
    y="38"
    width="14"
    height="14"
    fill="#777777"
/>

<rect
    x="969"
    y="57"
    width="14"
    height="14"
    fill="#777777"
/>

<rect
    x="969"
    y="76"
    width="14"
    height="14"
    fill="#777777"
/>

<rect
    x="969"
    y="95"
    width="14"
    height="14"
    fill="#777777"
/>

<rect
    x="969"
    y="114"
    width="14"
    height="14"
    fill="#777777"
/>

<rect
    x="988"
    y="0"
    width="14"
    height="14"
    fill="#3A3A3A"
/>

<rect
    x="988"
    y="19"
    width="14"
    height="14"
    fill="#777777"
/>

<rect
    x="988"
    y="38"
    width="14"
    height="14"
    fill="#3A3A3A"
/>

<rect
    x="988"
    y="57"
    width="14"
    height="14"
    fill="#777777"
/>

</g>


<!-- LEGEND -->

<text
    x="42"
    y="340"
    fill="#777777"
    font-family="monospace"
    font-size="11"
>
LESS
</text>

<rect
    x="78"
    y="330"
    width="13"
    height="13"
    fill="#151515"
/>

<rect
    x="98"
    y="330"
    width="13"
    height="13"
    fill="#3A3A3A"
/>

<rect
    x="118"
    y="330"
    width="13"
    height="13"
    fill="#777777"
/>

<rect
    x="138"
    y="330"
    width="13"
    height="13"
    fill="#FFFFFF"
/>

<text
    x="161"
    y="340"
    fill="#777777"
    font-family="monospace"
    font-size="11"
>
MORE
</text>


<!-- FOOTER -->

<line
    x1="42"
    y1="355"
    x2="1158"
    y2="355"
    stroke="#222222"
/>


<text
    x="600"
    y="378"
    fill="#888888"
    font-family="monospace"
    font-size="11"
    text-anchor="middle"
    letter-spacing="1"
>
DATA STRUCTURES  ·  ALGORITHMS  ·  PROBLEM SOLVING
</text>

</svg>
